{
  "accessors": [
    {
      "bufferView": 2,
      "componentType": 5126,
      "count": 58,
      "max": [
        0.0015722678508609533,
        -0.013766470365226269,
        -0.0010463405633345246
      ],
      "min": [
        -0.0015722678508609533,
        -0.015275579877197742,
        -0.0021577873267233372
      ],
      "type": "VEC3"
    },
    {
      "bufferView": 2,
      "byteOffset": 696,
      "componentType": 5126,
      "count": 58,
      "max": [
        0.0097454153001308441,
        0.0022956172470003366,
        -0.0022231952752918005
      ],
      "min": [
        -0.0097454143688082695,
        -0.0030411640182137489,
        -0.007554647047072649
      ],
      "type": "VEC3"
    },
    {
      "bufferView": 3,
      "componentType": 5126,
      "count": 58,
      "max": [
        0.76318204402923584,
        0.022283174097537994,
        0.97496062517166138,
        1
      ],
      "min": [
        0.22237326204776764,
        -0.022283032536506653,
        -0.97496050596237183,
        1
      ],
      "type": "VEC4"
    },
    {
      "bufferView": 3,
      "byteOffset": 928,
      "componentType": 5126,
      "count": 58,
      "max": [
        1,
        1,
        1,
        1
      ],
      "min": [
        1,
        1,
        1,
        1
      ],
      "type": "VEC4"
    },
    {
      "bufferView": 1,
      "componentType": 5126,
      "count": 58,
      "max": [
        0.4737829864025116,
        2.9935579299926758
      ],
      "min": [
        0.026216980069875717,
        2.7601780891418457
      ],
      "type": "VEC2"
    },
    {
      "bufferView": 0,
      "componentType": 5125,
      "count": 240,
      "max": [
        57
      ],
      "min": [
        0
      ],
      "type": "SCALAR"
    },
    {
      "bufferView": 2,
      "byteOffset": 1392,
      "componentType": 5126,
      "count": 336,
      "max": [
        0.0045295585878193378,
        -0.0063370075076818466,
        0.0022445071954280138
      ],
      "min": [
        -0.0045295585878193378,
        -0.015396107919514179,
        0.0010238051181659102
      ],
      "type": "VEC3"
    },
    {
      "bufferView": 2,
      "byteOffset": 5424,
      "componentType": 5126,
      "count": 336,
      "max": [
        0.0099999671801924706,
        0.0099999671801924706,
        0.0099999997764825821
      ],
      "min": [
        -0.0099999681115150452,
        -0.0099999662488698959,
        -0.0099966619163751602
      ],
      "type": "VEC3"
    },
    {
      "bufferView": 3,
      "byteOffset": 1856,
      "componentType": 5126,
      "count": 336,
      "max": [
        0.99265599250793457,
        0.99265658855438232,
        0.99457192420959473,
        1
      ],
      "min": [
        -0.99265587329864502,
        -0.9926566481590271,
        -0.99457138776779175,
        -1
      ],
      "type": "VEC4"
    },
    {
      "bufferView": 3,
      "byteOffset": 7232,
      "componentType": 5126,
      "count": 336,
      "max": [
        1,
        1,
        1,
        1
      ],
      "min": [
        1,
        1,
        1,
        1
      ],
      "type": "VEC4"
    },
    {
      "bufferView": 1,
      "byteOffset": 464,
      "componentType": 5126,
      "count": 336,
      "max": [
        0.98961502313613892,
        0.50658798217773438
      ],
      "min": [
        0.010539939627051353,
        0.0088189840316772461
      ],
      "type": "VEC2"
    },
    {
      "bufferView": 0,
      "byteOffset": 960,
      "componentType": 5125,
      "count": 1440,
      "max": [
        335
      ],
      "min": [
        0
      ],
      "type": "SCALAR"
    },
    {
      "bufferView": 2,
      "byteOffset": 9456,
      "componentType": 5126,
      "count": 1230,
      "max": [
        0.0058403215371072292,
        -0.0044513200409710407,
        0.0091521069407463074
      ],
      "min": [
        -0.0082568647339940071,
        -0.014521217904984951,
        -0.0038193329237401485
      ],
      "type": "VEC3"
    },
    {
      "bufferView": 2,
      "byteOffset": 24216,
      "componentType": 5126,
      "count": 1230,
      "max": [
        0.0099774263799190521,
        0.0099999895319342613,
        0.0099063357338309288
      ],
      "min": [
        -0.0099790459498763084,
        -0.0099999969825148582,
        -0.0099602034315466881
      ],
      "type": "VEC3"
    },
    {
      "bufferView": 3,
      "byteOffset": 12608,
      "componentType": 5126,
      "count": 1230,
      "max": [
        1,
        1,
        0.9999690055847168,
        1
      ],
      "min": [
        -0.99822425842285156,
        -0.99999988079071045,
        -0.9999690055847168,
        1
      ],
      "type": "VEC4"
    },
    {
      "bufferView": 3,
      "byteOffset": 32288,
      "componentType": 5126,
      "count": 1230,
      "max": [
        1,
        1,
        1,
        1
      ],
      "min": [
        1,
        1,
        1,
        1
      ],
      "type": "VEC4"
    },
    {
      "bufferView": 1,
      "byteOffset": 3152,
      "componentType": 5126,
      "count": 1230,
      "max": [
        0.98458600044250488,
        1.9919079542160034
      ],
      "min": [
        0.015413990244269371,
        1.0095820426940918
      ],
      "type": "VEC2"
    },
    {
      "bufferView": 0,
      "byteOffset": 6720,
      "componentType": 5125,
      "count": 6222,
      "max": [
        1229
      ],
      "min": [
        0
      ],
      "type": "SCALAR"
    },
    {
      "bufferView": 2,
      "byteOffset": 38976,
      "componentType": 5126,
      "count": 4586,
      "max": [
        0.0092686163261532784,
        -0.00025488491519354284,
        0.0046348082832992077
      ],
      "min": [
        -0.0092686135321855545,
        -0.016370490193367004,
        -0.0082514304667711258
      ],
      "type": "VEC3"
    },
    {
      "bufferView": 2,
      "byteOffset": 94008,
      "componentType": 5126,
      "count": 4586,
      "max": [
        0.0099988998845219612,
        0.0099998163059353828,
        0.0099982963874936104
      ],
      "min": [
        -0.0099989008158445358,
        -0.0099998926743865013,
        -0.0099999271333217621
      ],
      "type": "VEC3"
    },
    {
      "bufferView": 3,
      "byteOffset": 51968,
      "componentType": 5126,
      "count": 4586,
      "max": [
        1,
        1,
        0.99991828203201294,
        1
      ],
      "min": [
        -0.99999845027923584,
        -1,
        -0.99990183115005493,
        -1
      ],
      "type": "VEC4"
    },
    {
      "bufferView": 3,
      "byteOffset": 125344,
      "componentType": 5126,
      "count": 4586,
      "max": [
        1,
        1,
        1,
        1
      ],
      "min": [
        1,
        1,
        1,
        1
      ],
      "type": "VEC4"
    },
    {
      "bufferView": 1,
      "byteOffset": 12992,
      "componentType": 5126,
      "count": 4586,
      "max": [
        1,
        0.98837995529174805
      ],
      "min": [
        0,
        0.0065069794654846191
      ],
      "type": "VEC2"
    },
    {
      "bufferView": 0,
      "byteOffset": 31608,
      "componentType": 5125,
      "count": 20988,
      "max": [
        4585
      ],
      "min": [
        0
      ],
      "type": "SCALAR"
    },
    {
      "bufferView": 4,
      "componentType": 5126,
      "count": 1,
      "max": [
        1,
        0,
        0,
        0,
        0,
        1,
        0,
        0,
        0,
        0,
        1,
        0,
        0,
        0,
        0,
        1
      ],
      "min": [
        1,
        0,
        0,
        0,
        0,
        1,
        0,
        0,
        0,
        0,
        1,
        0,
        0,
        0,
        0,
        1
      ],
      "type": "MAT4"
    }
  ],
  "asset": {
    "extras": {
      "author": "197emmet (https://sketchfab.com/197emmet)",
      "license": "CC-BY-4.0 (http://creativecommons.org/licenses/by/4.0/)",
      "source": "https://sketchfab.com/models/3517af1ad21a4bfa9c4b36263fdfa4a1",
      "title": "Ash- Greninja"
    },
    "generator": "Sketchfab-4.1.2",
    "version": "2.0"
  },
  "bufferViews": [
    {
      "buffer": 0,
      "byteLength": 115560,
      "byteOffset": 0,
      "name": "floatBufferViews",
      "target": 34963
    },
    {
      "buffer": 0,
      "byteLength": 49680,
      "byteOffset": 115560,
      "byteStride": 8,
      "name": "floatBufferViews",
      "target": 34962
    },
    {
      "buffer": 0,
      "byteLength": 149040,
      "byteOffset": 165240,
      "byteStride": 12,
      "name": "floatBufferViews",
      "target": 34962
    },
    {
      "buffer": 0,
      "byteLength": 198720,
      "byteOffset": 314280,
      "byteStride": 16,
      "name": "floatBufferViews",
      "target": 34962
    },
    {
      "buffer": 0,
      "byteLength": 64,
      "byteOffset": 513000,
      "byteStride": 64,
      "name": "floatBufferViews"
    }
  ],
  "buffers": [
    {
      "byteLength": 513064,
      "uri": "scene.bin"
    }
  ],
  "images": [
    {
      "uri": "textures/6_model.part.001_1_0_0_baseColor.png"
    },
    {
      "uri": "textures/6_model.part.002_1_0_0_baseColor.png"
    },
    {
      "uri": "textures/6_model.part.003_1_0_0_baseColor.png"
    },
    {
      "uri": "textures/7_model_0_0_0_baseColor.png"
    }
  ],
  "materials": [
    {
      "doubleSided": true,
      "emissiveFactor": [
        0,
        0,
        0
      ],
      "name": "7_model_0_0_0",
      "pbrMetallicRoughness": {
        "baseColorFactor": [
          1,
          1,
          1,
          1
        ],
        "baseColorTexture": {
          "index": 3,
          "texCoord": 0
        },
        "metallicFactor": 0,
        "roughnessFactor": 0.82394172570000002
      }
    },
    {
      "doubleSided": true,
      "emissiveFactor": [
        0,
        0,
        0
      ],
      "name": "6_model.part.003_1_0_0",
      "pbrMetallicRoughness": {
        "baseColorFactor": [
          1,
          1,
          1,
          1
        ],
        "baseColorTexture": {
          "index": 2,
          "texCoord": 0
        },
        "metallicFactor": 0,
        "roughnessFactor": 0.82394172570000002
      }
    },
    {
      "doubleSided": true,
      "emissiveFactor": [
        0,
        0,
        0
      ],
      "name": "6_model.part.002_1_0_0",
      "pbrMetallicRoughness": {
        "baseColorFactor": [
          1,
          1,
          1,
          1
        ],
        "baseColorTexture": {
          "index": 1,
          "texCoord": 0
        },
        "metallicFactor": 0,
        "roughnessFactor": 0.82394172570000002
      }
    },
    {
      "doubleSided": true,
      "emissiveFactor": [
        0,
        0,
        0
      ],
      "name": "6_model.part.001_1_0_0",
      "pbrMetallicRoughness": {
        "baseColorFactor": [
          1,
          1,
          1,
          1
        ],
        "baseColorTexture": {
          "index": 0,
          "texCoord": 0
        },
        "metallicFactor": 0,
        "roughnessFactor": 0.82394172570000002
      }
    }
  ],
  "meshes": [
    {
      "primitives": [
        {
          "attributes": {
            "COLOR_0": 3,
            "NORMAL": 1,
            "POSITION": 0,
            "TANGENT": 2,
            "TEXCOORD_0": 4
          },
          "indices": 5,
          "material": 0,
          "mode": 4
        }
      ]
    },
    {
      "primitives": [
        {
          "attributes": {
            "COLOR_0": 9,
            "NORMAL": 7,
            "POSITION": 6,
            "TANGENT": 8,
            "TEXCOORD_0": 10
          },
          "indices": 11,
          "material": 1,
          "mode": 4
        }
      ]
    },
    {
      "primitives": [
        {
          "attributes": {
            "COLOR_0": 15,
            "NORMAL": 13,
            "POSITION": 12,
            "TANGENT": 14,
            "TEXCOORD_0": 16
          },
          "indices": 17,
          "material": 2,
          "mode": 4
        }
      ]
    },
    {
      "primitives": [
        {
          "attributes": {
            "COLOR_0": 21,
            "NORMAL": 19,
            "POSITION": 18,
            "TANGENT": 20,
            "TEXCOORD_0": 22
          },
          "indices": 23,
          "material": 3,
          "mode": 4
        }
      ]
    }
  ],
  "nodes": [
    {
      "children": [
        1
      ],
      "name": "RootNode (gltf orientation matrix)",
      "rotation": [
        -0.70710678118654746,
        -0,
        -0,
        0.70710678118654757
      ]
    },
    {
      "children": [
        2
      ],
      "name": "RootNode (model correction matrix)"
    },
    {
      "children": [
        3
      ],
      "matrix": [
        1,
        0,
        0,
        0,
        0,
        0,
        1,
        0,
        0,
        -1,
        0,
        0,
        0,
        0,
        0,
        1
      ],
      "name": "ShinyAshNinja.fbx"
    },
    {
      "children": [
        4
      ],
      "name": "RootNode"
    },
    {
      "children": [
        5
      ],
      "matrix": [
        100,
        0,
        0,
        0,
        0,
        -1.6292067939183141e-05,
        -99.999999999998678,
        0,
        0,
        99.999999999998678,
        -1.6292067939183141e-05,
        0,
        0,
        0,
        0,
        1
      ],
      "name": "Armature"
    },
    {
      "children": [
        6,
        7
      ],
      "name": ""
    },
    {
      "name": "_rootJoint"
    },
    {
      "children": [
        8,
        9,
        10,
        11
      ],
      "matrix": [
        100,
        0,
        0,
        0,
        0,
        6.1232342585174053e-15,
        -100.00000429153351,
        0,
        0,
        100.00000429153351,
        6.1232342585174053e-15,
        0,
        0,
        -4.9579540188915416e-06,
        1.3365006878984786e-09,
        1
      ],
      "name": ""
    },
    {
      "mesh": 0,
      "name": ""
    },
    {
      "mesh": 1,
      "name": ""
    },
    {
      "mesh": 2,
      "name": ""
    },
    {
      "mesh": 3,
      "name": ""
    }
  ],
  "samplers": [
    {
      "magFilter": 9729,
      "minFilter": 9987,
      "wrapS": 10497,
      "wrapT": 10497
    }
  ],
  "scene": 0,
  "scenes": [
    {
      "name": "OSG_Scene",
      "nodes": [
        0
      ]
    }
  ],
  "skins": [
    {
      "inverseBindMatrices": 24,
      "joints": [
        6
      ],
      "skeleton": 6
    }
  ],
  "textures": [
    {
      "sampler": 0,
      "source": 0
    },
    {
      "sampler": 0,
      "source": 1
    },
    {
      "sampler": 0,
      "source": 2
    },
    {
      "sampler": 0,
      "source": 3
    }
  ]
}

